<svg xmlns="http://www.w3.org/2000/svg" version="1.1" xmlns:xlink="http://www.w3.org/1999/xlink" width="128" height="128"><svg width="128" height="128" viewBox="0 0 128 128" fill="none" xmlns="http://www.w3.org/2000/svg">
<path d="M18.9275 69.3238C17.5978 67.7135 14.961 66.6632 12.5207 68.961C10.0804 71.2588 10.9521 74.6 12.5207 76.58C27.2755 95.2042 51.3239 97.3811 64.5 97.3811C77.6762 97.3811 101.724 95.2042 116.479 76.58C118.048 74.6 118.92 71.2588 116.479 68.961C114.039 66.6632 111.402 67.7135 110.073 69.3238M18.9275 69.3238C21.4131 54.4036 28.3794 44.9384 36.3345 39.0446M18.9275 69.3238C25.5103 77.296 34.1618 81.46 42.3786 83.6349M110.073 69.3238C96.292 86.013 73.4453 86.013 64.5 86.013C59.8278 86.013 51.3631 86.013 42.3786 83.6349M110.073 69.3238C104.391 35.2198 75.2988 29.6164 64.5 30.0195C58.4256 29.7928 46.5628 31.4666 36.3345 39.0446M36.3345 39.0446C38.9939 44.6528 45.2798 52.8047 48.7854 54.4487M48.7854 54.4487C52.6536 56.2627 64.5 56.2627 64.5 56.2627C64.5 56.2627 76.3465 56.2627 80.2147 54.4487M48.7854 54.4487C46.2468 58.1977 41.6533 72.7101 42.3786 83.6349M92.6656 39.0446C90.0062 44.6528 83.7203 52.8047 80.2147 54.4487M80.2147 54.4487C82.7532 58.1977 87.3468 72.7101 86.6215 83.6349" stroke="#203631" stroke-width="4.04865"></path>
</svg><style>@media (prefers-color-scheme: light) { :root { filter: none; } }
@media (prefers-color-scheme: dark) { :root { filter: contrast(0.3846153846153846) brightness(4.5); } }
</style></svg>