<svg width="384" height="247" viewBox="0 0 384 247" fill="none" xmlns="http://www.w3.org/2000/svg">
<path d="M34.4128 142.98C29.8147 137.411 20.697 133.779 12.2586 141.725C3.82016 149.671 6.83429 161.224 12.2586 168.071C63.2798 232.472 146.438 240 192 240C237.563 240 320.72 232.472 371.741 168.071C377.166 161.224 380.18 149.671 371.741 141.725C363.303 133.779 354.185 137.411 349.587 142.98M34.4128 142.98C43.0078 91.3863 67.0971 58.6561 94.6053 38.2757M34.4128 142.98C57.1756 170.547 87.0922 184.946 115.505 192.467M349.587 142.98C301.935 200.69 222.932 200.69 192 200.69C175.844 200.69 146.573 200.69 115.505 192.467M349.587 142.98C329.941 25.0497 229.342 5.6735 192 7.06747C170.995 6.28335 129.974 12.0713 94.6053 38.2757M94.6053 38.2757C103.801 57.6686 125.538 85.8573 137.66 91.5421M137.66 91.5421C151.036 97.815 192 97.815 192 97.815C192 97.815 232.965 97.815 246.341 91.5421M137.66 91.5421C128.882 104.506 112.997 154.689 115.505 192.467M289.395 38.2757C280.199 57.6686 258.463 85.8573 246.341 91.5421M246.341 91.5421C255.119 104.506 271.003 154.689 268.495 192.467" stroke="#203631" stroke-width="14"/>
</svg>
