<svg width="358" height="221" viewBox="0 0 358 221" fill="none" xmlns="http://www.w3.org/2000/svg">
<path fill-rule="evenodd" clip-rule="evenodd" d="M354.629 133.093C351.657 130.295 349.096 129.909 347.151 130.213C345.084 130.536 343.031 131.764 341.512 133.455L341.215 133.8C291.759 193.694 210.306 193.691 179.411 193.69H179.001H178.893C162.948 193.69 133.726 193.69 102.465 185.656L100.971 185.267C72.2156 177.655 41.557 163.083 17.908 135.141L16.7869 133.8C15.2444 131.932 13.0556 130.558 10.8504 130.213C8.90521 129.909 6.34427 130.295 3.37287 133.093C0.647593 135.659 -0.209978 138.667 0.0418133 141.834C0.309108 145.195 1.86134 148.692 3.96271 151.345L5.11994 152.79C54.3793 213.517 134.011 221 179.001 221C224.345 221 304.878 213.398 354.039 151.345L354.427 150.838C356.329 148.256 357.709 144.985 357.96 141.834C358.204 138.766 357.407 135.848 354.879 133.335L354.629 133.093ZM179.012 90.8155H179.003C179.002 90.8155 179.001 90.8151 179.001 84.8155C179.001 90.7662 179.001 90.8151 179 90.8155H178.99C178.984 90.8155 178.975 90.8146 178.964 90.8146C178.951 90.8145 178.934 90.8146 178.915 90.8146C178.901 90.8146 178.885 90.8146 178.868 90.8146L178.791 90.8144C178.716 90.8143 178.621 90.8142 178.508 90.8136C178.194 90.812 177.735 90.8091 177.15 90.8028C175.98 90.7903 174.301 90.7647 172.246 90.7149C168.141 90.6156 162.515 90.4167 156.453 90.0177C150.405 89.6196 143.84 89.0177 137.88 88.0987C134.229 87.5358 130.587 86.8231 127.35 85.8868C123.709 93.0856 119.026 105.845 115.17 121.164C110.863 138.272 107.813 157.702 108.293 174.742C136.943 181.673 163.62 181.69 179.001 181.69C194.572 181.69 221.23 181.621 249.708 174.741C250.187 157.701 247.138 138.272 242.832 121.164C238.975 105.844 234.291 93.0855 230.65 85.8868C227.414 86.8229 223.772 87.5359 220.122 88.0987C214.162 89.0176 207.597 89.6196 201.55 90.0177C195.487 90.4167 189.861 90.6156 185.756 90.7149C183.701 90.7647 182.021 90.7903 180.851 90.8028C180.267 90.8091 179.809 90.812 179.495 90.8136C179.338 90.8144 179.217 90.8143 179.134 90.8146C179.092 90.8146 179.06 90.8145 179.038 90.8146C179.032 90.8146 179.026 90.8149 179.021 90.8151C179.017 90.8154 179.014 90.8155 179.012 90.8155ZM97.3406 60.7843C90.7666 52.5193 84.3763 43.0954 79.5955 34.4581C56.136 53.7521 35.8844 83.3062 27.8035 128.247C47.2325 150.805 71.8509 163.872 96.244 171.43C96.2119 153.839 99.3745 134.754 103.533 118.234C107.375 102.972 112.236 89.2326 116.595 80.5802C114.376 78.9345 112.137 76.977 109.949 74.8683C105.824 70.8933 101.506 66.0215 97.3406 60.7843ZM330.198 128.246C322.128 83.3657 301.91 53.7842 278.407 34.4552C273.626 43.0931 267.237 52.5186 260.662 60.7843C256.496 66.0215 252.177 70.8933 248.053 74.8683C245.864 76.9772 243.625 78.9344 241.406 80.5802C245.765 89.2326 250.628 102.972 254.47 118.234C258.628 134.754 261.789 153.839 261.757 171.43C286.054 163.905 310.721 150.86 330.198 128.246ZM261.338 22.419C230.235 3.71201 196.948 -0.598046 179.224 0.0635737L179.001 0.0713862L178.777 0.0635737C159.585 -0.652863 122.338 4.45597 89.2879 27.1671C93.7234 35.4426 100.071 44.9407 106.731 53.3146C110.664 58.2592 114.629 62.7123 118.276 66.2276C122.018 69.8334 125.081 72.1119 127.208 73.1095L127.702 73.3302C130.277 74.4259 134.429 75.4243 139.709 76.2384C145.191 77.0837 151.376 77.658 157.241 78.044C163.091 78.4291 168.543 78.6222 172.536 78.7188C174.53 78.7671 176.156 78.7908 177.279 78.8028C177.84 78.8088 178.276 78.8121 178.568 78.8136C178.679 78.8141 178.769 78.8143 178.838 78.8144L178.897 78.8146H178.978C178.987 78.8146 178.993 78.8155 178.997 78.8155H179.005C179.006 78.8155 179.008 78.8154 179.01 78.8152C179.014 78.8149 179.018 78.8146 179.023 78.8146H179.104L179.161 78.8144C179.23 78.8143 179.322 78.8141 179.434 78.8136C179.727 78.8121 180.163 78.8088 180.723 78.8028C181.846 78.7908 183.471 78.7671 185.466 78.7188C189.459 78.6222 194.911 78.4291 200.762 78.044C206.627 77.658 212.811 77.0837 218.294 76.2384C223.925 75.3701 228.273 74.2916 230.794 73.1095L231.204 72.9073C233.307 71.8218 236.219 69.608 239.726 66.2276C243.374 62.7124 247.337 58.259 251.27 53.3146C257.931 44.9403 264.279 35.4419 268.715 27.1661C266.274 25.4887 263.812 23.9073 261.338 22.419Z" fill="#203631"/>
</svg>
